<svg version="1.1" id="Layer_1" xmlns="http://www.w3.org/2000/svg" xmlns:xlink="http://www.w3.org/1999/xlink" x="0px" y="0px"
	 width="100%" viewBox="0 0 2835 2195" enable-background="new 0 0 2835 2195" xml:space="preserve">
<path fill="#FFFFFF" opacity="1.000000" stroke="none" 
	d="
M1664.000000,2198.000000 
	C1109.333374,2198.000000 555.666687,2198.000000 2.000000,2198.000000 
	C2.000000,1466.000000 2.000000,734.000000 2.000000,2.000000 
	C947.333313,2.000000 1892.666626,2.000000 2838.000000,2.000000 
	C2838.000000,734.000000 2838.000000,1466.000000 2838.000000,2198.000000 
	C2447.000000,2198.000000 2056.000000,2198.000000 1664.000000,2198.000000 
M631.635620,1540.944458 
	C631.740906,1541.930054 631.495544,1543.174683 632.003601,1543.862793 
	C640.360657,1555.178345 640.210999,1570.099243 648.251465,1581.666138 
	C651.349121,1586.122437 652.089417,1592.143066 654.562317,1597.123901 
	C659.497925,1607.064941 664.792664,1616.832886 670.135437,1626.564453 
	C672.475098,1630.825928 675.697449,1634.626099 677.829651,1638.973877 
	C687.034241,1657.743042 699.718018,1674.202515 712.838440,1690.175537 
	C724.136658,1703.930054 736.764893,1716.646606 749.370422,1729.256836 
	C761.277771,1741.168823 773.903748,1752.363892 786.256897,1763.827515 
	C788.655884,1766.053833 791.124573,1768.246948 793.783325,1770.144043 
	C802.625610,1776.453735 811.530334,1782.678223 820.484436,1788.828613 
	C830.749817,1795.879517 840.801086,1803.307129 851.482239,1809.669678 
	C863.026367,1816.546387 875.031921,1822.708374 887.125061,1828.588135 
	C902.038635,1835.838989 917.103271,1842.825195 932.379883,1849.268433 
	C944.421448,1854.347168 957.625366,1857.081665 968.957520,1863.319946 
	C981.359253,1870.147217 995.352478,1870.797607 1008.013428,1876.560547 
	C1017.575195,1880.912598 1028.699707,1882.161133 1039.037231,1885.375977 
	C1053.946655,1890.012573 1069.899414,1890.967041 1084.460083,1897.245117 
	C1085.308472,1897.610840 1086.441772,1897.286743 1087.439453,1897.340332 
	C1101.312866,1898.084717 1115.082886,1899.105957 1128.245605,1904.380493 
	C1132.750610,1906.185669 1137.859375,1906.874756 1142.754761,1907.243286 
	C1158.298828,1908.413330 1173.873413,1909.175415 1189.433105,1910.146118 
	C1191.063477,1910.247559 1192.833740,1910.345459 1194.265625,1911.022827 
	C1203.130371,1915.216431 1212.517700,1916.085815 1222.162720,1916.184326 
	C1232.907715,1916.293945 1243.647705,1916.912964 1254.389160,1917.325806 
	C1271.651855,1917.989014 1288.912354,1918.704834 1306.176880,1919.315308 
	C1313.141479,1919.561401 1320.113647,1919.620972 1327.083008,1919.708496 
	C1347.089844,1919.959839 1367.097290,1920.359009 1387.104248,1920.350098 
	C1399.318115,1920.344727 1411.542358,1919.894165 1423.740723,1919.243774 
	C1429.285034,1918.948242 1434.808350,1917.847534 1440.286621,1916.820312 
	C1448.618774,1915.258179 1456.834106,1912.792969 1465.225708,1911.894653 
	C1476.339966,1910.704956 1487.593628,1910.878906 1498.753296,1910.022217 
	C1504.319336,1909.594971 1510.802124,1909.683838 1515.096191,1906.850708 
	C1521.192749,1902.828247 1527.250122,1902.333618 1533.894165,1902.065796 
	C1544.799438,1901.625977 1555.718384,1901.163330 1565.129639,1894.306152 
	C1566.862671,1893.043457 1569.452881,1892.664917 1571.701660,1892.452148 
	C1582.162842,1891.462646 1592.890015,1892.009033 1601.985840,1885.000366 
	C1603.858643,1883.557251 1607.093262,1883.953369 1609.653931,1883.316284 
	C1616.013428,1881.734009 1622.988647,1881.186646 1628.510376,1878.080078 
	C1634.124023,1874.921875 1639.924072,1873.618164 1645.846313,1872.019409 
	C1649.023071,1871.161499 1652.215454,1870.251343 1655.251587,1869.002197 
	C1667.010498,1864.164429 1678.676270,1859.100342 1690.440186,1854.275513 
	C1701.035522,1849.929810 1711.897461,1846.189575 1722.305298,1841.444092 
	C1733.296509,1836.432617 1743.920166,1830.606445 1754.644165,1825.020508 
	C1760.198853,1822.127075 1765.584351,1818.910156 1771.115356,1815.969360 
	C1779.838501,1811.331665 1788.955688,1807.341064 1797.308228,1802.119873 
	C1815.996216,1790.437744 1834.395996,1778.286865 1852.752930,1766.085938 
	C1862.633301,1759.518921 1872.297607,1752.609741 1881.853271,1745.574951 
	C1894.540283,1736.234741 1907.373047,1727.040405 1919.500122,1717.006226 
	C1931.436523,1707.130005 1942.963745,1696.680664 1953.966187,1685.772339 
	C1972.026123,1667.866943 1989.349365,1649.220825 2007.294678,1631.197021 
	C2025.021729,1613.392334 2041.244263,1594.413818 2055.729492,1573.857422 
	C2066.112061,1559.122803 2077.724609,1545.252197 2088.042480,1530.475342 
	C2096.489258,1518.378174 2103.999268,1505.611206 2111.624023,1492.959717 
	C2119.762695,1479.455322 2127.791260,1465.871460 2135.387939,1452.058350 
	C2139.296631,1444.951660 2142.980469,1437.723511 2146.898193,1430.616089 
	C2152.402832,1420.630249 2155.423340,1409.308105 2160.434570,1399.009155 
	C2167.168945,1385.168579 2174.484863,1371.642944 2177.989746,1356.478149 
	C2178.498779,1354.276855 2179.830322,1352.266724 2180.771240,1350.163696 
	C2182.489990,1346.322021 2184.427734,1342.559082 2185.860840,1338.613403 
	C2187.758545,1333.388062 2189.194824,1327.997192 2190.949707,1322.717529 
	C2192.677734,1317.518555 2195.435791,1312.484253 2196.129883,1307.167358 
	C2196.875488,1301.455444 2198.393066,1296.320923 2201.081787,1291.335083 
	C2202.430664,1288.833618 2203.682373,1286.155396 2204.297852,1283.404907 
	C2206.643799,1272.921509 2207.514893,1262.173584 2212.691895,1252.294556 
	C2215.006836,1247.877075 2215.296143,1242.155151 2215.585938,1236.973755 
	C2216.085449,1228.044800 2216.023438,1219.286133 2221.535889,1211.355713 
	C2223.613525,1208.366699 2223.939209,1203.887695 2224.279541,1200.018921 
	C2225.019531,1191.601807 2225.406982,1183.144775 2225.652832,1174.695801 
	C2225.884033,1166.746704 2225.404785,1158.770752 2230.684326,1151.878906 
	C2231.780029,1150.448730 2232.003906,1148.147095 2232.135254,1146.213501 
	C2233.383545,1127.859741 2235.426758,1109.502930 2235.509766,1091.139160 
	C2235.683350,1052.668579 2235.002197,1014.189209 2234.214355,975.722839 
	C2234.040039,967.204346 2233.139648,958.317993 2230.381348,950.361084 
	C2228.315430,944.402039 2225.912109,938.893677 2226.186768,932.460876 
	C2226.327637,929.154297 2225.885010,925.822327 2225.696045,922.502380 
	C2224.843262,907.535339 2225.297852,892.584534 2217.949219,878.434692 
	C2215.007812,872.771484 2216.536865,864.870117 2215.630615,858.040649 
	C2214.860840,852.235840 2214.955566,845.616089 2212.074219,840.963013 
	C2208.187500,834.686218 2207.174561,828.327576 2206.262451,821.467712 
	C2205.447021,815.330566 2204.903564,808.718506 2202.158936,803.387573 
	C2198.730713,796.729614 2196.695557,790.200195 2196.212158,782.809998 
	C2195.935303,778.578003 2195.500000,773.354187 2192.970459,770.487793 
	C2188.218018,765.102051 2188.055176,758.880127 2186.341553,752.678162 
	C2183.043213,740.741150 2176.209717,730.036682 2174.099365,717.488586 
	C2173.167480,711.948303 2169.541260,706.846375 2167.050781,701.586792 
	C2164.006348,695.157166 2160.688721,688.851196 2157.814453,682.348022 
	C2153.089355,671.657288 2148.976074,660.683533 2143.939453,650.147339 
	C2140.037598,641.985168 2133.682129,634.761353 2131.019287,626.301453 
	C2127.770996,615.982300 2120.908936,608.037292 2116.019287,598.920471 
	C2102.052490,572.878906 2085.582275,548.242981 2067.955322,524.513672 
	C2054.617432,506.558685 2040.434570,489.207184 2026.128540,472.002167 
	C2009.471924,451.969940 1991.425659,433.198975 1971.633301,416.211945 
	C1951.194580,398.670227 1931.033813,380.760956 1908.428345,365.931824 
	C1896.403320,358.043335 1884.576294,349.838593 1872.356079,342.266724 
	C1862.860229,336.382843 1853.114746,330.804535 1843.077515,325.917511 
	C1832.194214,320.618591 1820.748535,316.487610 1809.724976,311.459595 
	C1798.891846,306.518280 1787.267334,303.456177 1776.533203,298.972748 
	C1765.614746,294.412140 1755.031372,291.615784 1743.600464,290.439270 
	C1741.711426,290.244873 1739.525635,289.897766 1738.091919,288.810425 
	C1729.327881,282.163605 1718.556396,283.219208 1708.720703,281.666321 
	C1697.094849,279.830780 1685.043457,280.854767 1673.213989,280.072174 
	C1667.734985,279.709747 1662.341675,278.019684 1656.915405,276.903137 
	C1652.421509,275.978485 1647.951660,274.292206 1643.444214,274.195038 
	C1627.785522,273.857330 1612.112549,273.915710 1596.451050,274.179535 
	C1592.962402,274.238312 1589.493408,275.729828 1586.023682,276.594940 
	C1580.648682,277.934998 1575.338745,280.090820 1569.897461,280.491974 
	C1559.424805,281.264160 1548.874023,280.901642 1538.365479,281.283020 
	C1525.539551,281.748535 1512.750610,282.273102 1501.110962,289.034119 
	C1498.465820,290.570648 1494.709106,290.446075 1491.440063,290.610291 
	C1479.542847,291.207916 1467.578857,291.173065 1457.011353,298.091156 
	C1455.173218,299.294464 1452.617920,300.035004 1450.426514,299.965088 
	C1433.397217,299.421509 1420.119995,312.741241 1403.241211,312.597565 
	C1402.964233,312.595184 1402.668701,312.920624 1402.408081,313.126312 
	C1396.815918,317.539429 1389.739624,318.196442 1383.474243,320.770782 
	C1369.921509,326.339294 1356.252441,331.671722 1342.907349,337.876862 
	C1328.896240,344.391785 1314.636597,350.276215 1301.250610,358.117737 
	C1293.024292,362.936768 1284.079346,366.606934 1276.155396,371.848633 
	C1257.932129,383.903412 1239.519897,395.817688 1222.347900,409.273987 
	C1206.768677,421.482178 1192.236450,435.158905 1178.170898,449.123260 
	C1167.443604,459.773346 1157.809814,471.600006 1148.360718,483.438934 
	C1140.826050,492.879364 1134.067261,502.971771 1127.408203,513.067749 
	C1122.164062,521.018555 1117.601929,529.418884 1112.727905,537.614258 
	C1106.069336,548.810303 1099.018311,559.811951 1095.675781,572.627380 
	C1095.342896,573.904053 1094.937622,575.221252 1094.268188,576.341858 
	C1085.434937,591.127258 1080.522461,607.542175 1076.542480,623.975342 
	C1074.628662,631.877441 1072.128052,639.613159 1070.387939,647.489929 
	C1067.914185,658.687195 1067.161377,670.262390 1065.618652,681.668762 
	C1065.137695,685.224548 1065.297485,689.178894 1063.731201,692.210449 
	C1060.568115,698.332336 1059.544067,704.511169 1059.546631,711.330139 
	C1059.648926,983.984680 1059.633667,1256.639282 1059.633667,1529.293945 
	C1059.633667,1531.627197 1059.461426,1533.977539 1059.690430,1536.288208 
	C1059.881714,1538.218140 1060.152466,1540.316772 1061.062378,1541.969482 
	C1065.918579,1550.788452 1070.653198,1559.702515 1076.048218,1568.190796 
	C1088.537720,1587.840820 1107.796143,1599.458374 1127.918823,1609.356201 
	C1138.090210,1614.359131 1150.310669,1614.558594 1160.175049,1621.042725 
	C1161.220093,1621.729980 1162.712402,1621.921143 1164.017822,1621.998535 
	C1174.225952,1622.604858 1184.442749,1623.634155 1194.650146,1623.563965 
	C1213.037476,1623.437256 1231.431885,1622.872437 1249.797363,1621.965210 
	C1254.916748,1621.712280 1259.964966,1619.689941 1265.009766,1618.344360 
	C1270.991821,1616.748657 1276.946289,1615.046265 1282.891724,1613.318115 
	C1289.172852,1611.492310 1295.475220,1609.719116 1301.678589,1607.653809 
	C1305.062622,1606.527100 1308.142090,1604.080688 1311.564575,1603.546875 
	C1323.893799,1601.623901 1333.730835,1594.267944 1344.535278,1589.071045 
	C1353.049194,1584.975952 1360.894409,1579.404663 1369.109985,1575.048340 
	C1380.345459,1569.090698 1390.110352,1561.433838 1399.555908,1553.552856 
	C1426.519653,1531.055542 1448.648315,1504.584595 1464.749390,1472.910400 
	C1471.033813,1460.547852 1470.731934,1445.883301 1479.908691,1434.815430 
	C1481.090576,1433.390015 1480.264771,1430.301880 1480.372681,1427.984131 
	C1480.813232,1418.525757 1481.637817,1409.067505 1481.640747,1399.609009 
	C1481.712158,1164.952637 1481.666138,930.296387 1481.781860,695.640137 
	C1481.787964,683.120972 1482.759521,670.579163 1483.847046,658.097107 
	C1484.201172,654.033936 1487.038696,650.215454 1487.564087,646.133667 
	C1489.239014,633.120300 1490.189209,620.014526 1491.791138,606.990173 
	C1492.342896,602.504639 1493.829590,598.104736 1495.174316,593.753784 
	C1496.720459,588.751221 1499.629150,583.933594 1500.050659,578.877563 
	C1500.615967,572.098267 1501.981079,565.982788 1505.336060,560.032349 
	C1507.406982,556.359192 1508.611328,552.082947 1509.597168,547.933167 
	C1513.111450,533.141663 1517.542725,530.553650 1531.140015,536.611511 
	C1544.794434,542.694885 1558.923950,548.140503 1571.578613,555.924683 
	C1585.690186,564.604919 1601.675903,570.508850 1613.526245,582.815613 
	C1615.747803,585.122620 1619.091675,586.304138 1621.684204,588.307068 
	C1630.802856,595.351868 1640.247559,602.056458 1648.764160,609.777344 
	C1658.823486,618.896790 1668.046021,628.939026 1677.633423,638.579102 
	C1680.901978,641.865723 1684.526245,644.869690 1687.383057,648.481384 
	C1695.659912,658.945129 1703.612183,669.665161 1711.724487,680.259705 
	C1720.675781,691.950012 1729.298340,703.740662 1736.248535,716.900085 
	C1739.551270,723.153381 1743.467773,729.297119 1746.892090,735.630371 
	C1752.360474,745.743896 1758.512207,755.515808 1763.492432,765.857239 
	C1768.272583,775.783020 1770.847900,786.882568 1776.364746,796.312317 
	C1782.776611,807.271973 1782.615112,820.669189 1790.614624,830.828003 
	C1791.679688,832.180603 1791.228027,834.669739 1791.653809,836.593872 
	C1793.278809,843.938721 1794.267456,851.458740 1798.432007,858.050354 
	C1799.799927,860.215637 1801.053589,862.816101 1801.240967,865.301819 
	C1802.082275,876.460999 1803.106201,887.471863 1809.229980,897.337280 
	C1810.201294,898.902039 1810.059814,901.206787 1810.269531,903.186707 
	C1811.418823,914.036499 1812.438843,924.900818 1813.698853,935.737366 
	C1813.953491,937.927063 1815.059692,940.016052 1815.758057,942.156372 
	C1817.155518,946.439758 1819.481445,950.665466 1819.764771,955.022827 
	C1820.766235,970.422668 1821.589600,985.870361 1821.521484,1001.295654 
	C1821.391968,1030.620239 1820.662109,1059.943237 1820.026611,1089.263550 
	C1819.913940,1094.458862 1819.274780,1099.379517 1816.532349,1104.398193 
	C1813.808105,1109.383423 1813.528076,1115.730347 1812.313110,1121.508911 
	C1809.891846,1133.024780 1812.142090,1145.391968 1805.930542,1156.226318 
	C1803.046387,1161.256592 1802.248779,1166.678223 1802.136353,1172.493164 
	C1802.009644,1179.041504 1801.453613,1185.694946 1796.137573,1190.865234 
	C1794.711182,1192.252563 1794.603149,1195.038330 1793.989014,1197.210083 
	C1792.130371,1203.782837 1790.437378,1210.405029 1788.451416,1216.938599 
	C1787.036743,1221.592285 1785.196045,1226.114868 1783.658569,1230.733643 
	C1782.935547,1232.905762 1782.798950,1235.314819 1781.849487,1237.362915 
	C1776.125610,1249.710815 1770.213379,1261.971436 1764.429077,1274.291748 
	C1762.346924,1278.726440 1760.660156,1283.356689 1758.416138,1287.703247 
	C1754.048340,1296.163330 1749.330566,1304.442261 1744.914795,1312.878540 
	C1741.000977,1320.355713 1737.867065,1328.302612 1733.376953,1335.402222 
	C1726.058716,1346.973511 1717.190674,1357.598267 1710.280762,1369.386719 
	C1697.874756,1390.551392 1681.594238,1408.715332 1666.480103,1427.743774 
	C1646.429565,1452.986816 1624.141479,1476.273071 1599.936890,1497.613403 
	C1587.629761,1508.464111 1574.182251,1518.088745 1562.427368,1529.482300 
	C1546.035645,1545.370483 1526.812378,1557.486572 1509.057495,1571.522949 
	C1496.784668,1581.225342 1482.864868,1588.851196 1469.638672,1597.338989 
	C1456.993774,1605.453735 1444.571655,1613.968018 1431.548462,1621.428345 
	C1415.076416,1630.864136 1398.218872,1639.655273 1381.271362,1648.217407 
	C1374.885132,1651.443848 1367.426758,1652.461792 1362.217896,1658.136963 
	C1361.297485,1659.139648 1359.035156,1658.810425 1357.481079,1659.351074 
	C1353.497925,1660.736938 1348.971436,1661.470215 1345.725220,1663.890381 
	C1336.619995,1670.679077 1325.679932,1673.256592 1315.598145,1677.627441 
	C1304.307373,1682.522339 1293.665771,1689.609985 1280.843384,1690.493408 
	C1273.711670,1696.501953 1264.785767,1697.880737 1256.180664,1700.124512 
	C1254.976074,1700.438599 1253.975830,1701.466797 1252.791016,1701.938477 
	C1247.943970,1703.868164 1243.138062,1705.953369 1238.169189,1707.509521 
	C1234.062256,1708.795532 1228.826172,1708.209839 1225.713623,1710.582764 
	C1218.896362,1715.780151 1210.777344,1715.604980 1203.341553,1718.068237 
	C1199.017944,1719.500610 1194.602783,1720.869141 1190.572876,1722.937134 
	C1176.653320,1730.079834 1166.242310,1728.764893 1156.170410,1717.371338 
	C1146.365723,1706.280151 1136.983276,1694.810425 1127.583496,1683.368652 
	C1121.294678,1675.713257 1115.171997,1667.912109 1109.232666,1659.983154 
	C1106.703857,1656.607300 1104.958984,1652.656494 1102.640015,1649.109253 
	C1095.840942,1638.709106 1088.365845,1628.703613 1082.223145,1617.934448 
	C1075.871948,1606.799561 1070.715332,1594.977905 1065.166138,1583.394409 
	C1063.761963,1580.463257 1062.909668,1577.272095 1061.693726,1574.244751 
	C1060.998657,1572.514282 1060.013306,1570.902466 1059.277832,1569.186035 
	C1057.380981,1564.758911 1055.464844,1560.336548 1053.721313,1555.848267 
	C1052.424438,1552.509521 1051.450317,1549.046753 1050.215210,1545.682251 
	C1048.780884,1541.774902 1046.968872,1537.989868 1045.769531,1534.016235 
	C1043.881226,1527.760498 1043.212280,1520.989990 1040.450439,1515.187866 
	C1037.867188,1509.760498 1035.852173,1504.565674 1035.640625,1498.555054 
	C1035.443115,1492.945923 1035.246460,1487.268066 1034.217896,1481.776367 
	C1033.215332,1476.423828 1031.174194,1471.264160 1029.557373,1466.029541 
	C1028.987061,1464.182983 1027.938965,1462.400757 1027.766846,1460.528809 
	C1026.952271,1451.666260 1025.786011,1442.782959 1025.781494,1433.906738 
	C1025.672729,1220.249512 1025.696777,1006.592346 1025.696777,792.935120 
	C1025.696777,667.940674 1025.653564,542.946106 1025.820068,417.951843 
	C1025.828735,411.440125 1024.901733,405.216858 1021.706665,399.938873 
	C1016.635803,391.562500 1010.681580,383.688477 1004.732178,375.883148 
	C992.403015,359.708008 978.919312,344.669434 963.204529,331.544037 
	C949.006409,319.685272 934.494690,308.381592 918.435608,299.211304 
	C908.135254,293.329468 897.573975,287.895538 887.021790,282.470612 
	C884.445190,281.145966 881.433838,280.679077 878.641418,279.760010 
	C865.910461,275.569672 854.144043,268.182404 840.156250,268.161133 
	C828.914368,260.292572 816.042786,260.295166 803.050720,259.910553 
	C793.049500,259.614502 782.697937,259.752167 773.905273,253.344101 
	C772.682739,252.453125 770.799866,252.141357 769.216858,252.125061 
	C758.885071,252.018707 748.547974,251.915863 738.221130,252.164871 
	C735.375244,252.233490 731.977661,252.739777 729.838318,254.366821 
	C723.682129,259.048767 716.880981,259.415527 709.604980,259.504425 
	C701.396118,259.604706 692.544006,258.971893 685.152954,261.773834 
	C674.395996,265.851715 662.731995,267.953094 652.793030,272.901184 
	C641.833618,278.357300 629.773560,281.719788 619.791260,289.992126 
	C610.056824,298.059021 603.428467,305.592407 603.437988,319.222839 
	C603.685181,672.540344 603.634216,1025.858154 603.629211,1379.175781 
	C603.629150,1387.385864 602.777344,1395.719727 608.926880,1402.625244 
	C609.827698,1403.636719 609.545044,1405.800537 609.614136,1407.439331 
	C610.320923,1424.201294 610.976135,1440.965576 611.669800,1457.728027 
	C611.996155,1465.613770 612.914978,1473.213135 617.326294,1480.249146 
	C619.308105,1483.410156 619.571106,1487.738647 620.262329,1491.600464 
	C621.826904,1500.341919 621.801636,1509.670532 625.019348,1517.722778 
	C627.860046,1524.831909 630.476746,1531.761841 631.635620,1540.944458 
z"/>
<path fill="#050607" opacity="1.000000" stroke="none" 
	d="
M631.629150,1540.114990 
	C630.476746,1531.761841 627.860046,1524.831909 625.019348,1517.722778 
	C621.801636,1509.670532 621.826904,1500.341919 620.262329,1491.600464 
	C619.571106,1487.738647 619.308105,1483.410156 617.326294,1480.249146 
	C612.914978,1473.213135 611.996155,1465.613770 611.669800,1457.728027 
	C610.976135,1440.965576 610.320923,1424.201294 609.614136,1407.439331 
	C609.545044,1405.800537 609.827698,1403.636719 608.926880,1402.625244 
	C602.777344,1395.719727 603.629150,1387.385864 603.629211,1379.175781 
	C603.634216,1025.858154 603.685181,672.540344 603.437988,319.222839 
	C603.428467,305.592407 610.056824,298.059021 619.791260,289.992126 
	C629.773560,281.719788 641.833618,278.357300 652.793030,272.901184 
	C662.731995,267.953094 674.395996,265.851715 685.152954,261.773834 
	C692.544006,258.971893 701.396118,259.604706 709.604980,259.504425 
	C716.880981,259.415527 723.682129,259.048767 729.838318,254.366821 
	C731.977661,252.739777 735.375244,252.233490 738.221130,252.164871 
	C748.547974,251.915863 758.885071,252.018707 769.216858,252.125061 
	C770.799866,252.141357 772.682739,252.453125 773.905273,253.344101 
	C782.697937,259.752167 793.049500,259.614502 803.050720,259.910553 
	C816.042786,260.295166 828.914368,260.292572 840.156250,268.161133 
	C854.144043,268.182404 865.910461,275.569672 878.641418,279.760010 
	C881.433838,280.679077 884.445190,281.145966 887.021790,282.470612 
	C897.573975,287.895538 908.135254,293.329468 918.435608,299.211304 
	C934.494690,308.381592 949.006409,319.685272 963.204529,331.544037 
	C978.919312,344.669434 992.403015,359.708008 1004.732178,375.883148 
	C1010.681580,383.688477 1016.635803,391.562500 1021.706665,399.938873 
	C1024.901733,405.216858 1025.828735,411.440125 1025.820068,417.951843 
	C1025.653564,542.946106 1025.696777,667.940674 1025.696777,792.935120 
	C1025.696777,1006.592346 1025.672729,1220.249512 1025.781494,1433.906738 
	C1025.786011,1442.782959 1026.952271,1451.666260 1027.766846,1460.528809 
	C1027.938965,1462.400757 1028.987061,1464.182983 1029.557373,1466.029541 
	C1031.174194,1471.264160 1033.215332,1476.423828 1034.217896,1481.776367 
	C1035.246460,1487.268066 1035.443115,1492.945923 1035.640625,1498.555054 
	C1035.852173,1504.565674 1037.867188,1509.760498 1040.450439,1515.187866 
	C1043.212280,1520.989990 1043.881226,1527.760498 1045.769531,1534.016235 
	C1046.968872,1537.989868 1048.780884,1541.774902 1050.215210,1545.682251 
	C1051.450317,1549.046753 1052.424438,1552.509521 1053.721313,1555.848267 
	C1055.464844,1560.336548 1057.380981,1564.758911 1059.277832,1569.186035 
	C1060.013306,1570.902466 1060.998657,1572.514282 1061.693726,1574.244751 
	C1062.909668,1577.272095 1063.761963,1580.463257 1065.166138,1583.394409 
	C1070.715332,1594.977905 1075.871948,1606.799561 1082.223145,1617.934448 
	C1088.365845,1628.703613 1095.840942,1638.709106 1102.640015,1649.109253 
	C1104.958984,1652.656494 1106.703857,1656.607300 1109.232666,1659.983154 
	C1115.171997,1667.912109 1121.294678,1675.713257 1127.583496,1683.368652 
	C1136.983276,1694.810425 1146.365723,1706.280151 1156.170410,1717.371338 
	C1166.242310,1728.764893 1176.653320,1730.079834 1190.572876,1722.937134 
	C1194.602783,1720.869141 1199.017944,1719.500610 1203.341553,1718.068237 
	C1210.777344,1715.604980 1218.896362,1715.780151 1225.713623,1710.582764 
	C1228.826172,1708.209839 1234.062256,1708.795532 1238.169189,1707.509521 
	C1243.138062,1705.953369 1247.943970,1703.868164 1252.791016,1701.938477 
	C1253.975830,1701.466797 1254.976074,1700.438599 1256.180664,1700.124512 
	C1264.785767,1697.880737 1273.711670,1696.501953 1280.843384,1690.493408 
	C1293.665771,1689.609985 1304.307373,1682.522339 1315.598145,1677.627441 
	C1325.679932,1673.256592 1336.619995,1670.679077 1345.725220,1663.890381 
	C1348.971436,1661.470215 1353.497925,1660.736938 1357.481079,1659.351074 
	C1359.035156,1658.810425 1361.297485,1659.139648 1362.217896,1658.136963 
	C1367.426758,1652.461792 1374.885132,1651.443848 1381.271362,1648.217407 
	C1398.218872,1639.655273 1415.076416,1630.864136 1431.548462,1621.428345 
	C1444.571655,1613.968018 1456.993774,1605.453735 1469.638672,1597.338989 
	C1482.864868,1588.851196 1496.784668,1581.225342 1509.057495,1571.522949 
	C1526.812378,1557.486572 1546.035645,1545.370483 1562.427368,1529.482300 
	C1574.182251,1518.088745 1587.629761,1508.464111 1599.936890,1497.613403 
	C1624.141479,1476.273071 1646.429565,1452.986816 1666.480103,1427.743774 
	C1681.594238,1408.715332 1697.874756,1390.551392 1710.280762,1369.386719 
	C1717.190674,1357.598267 1726.058716,1346.973511 1733.376953,1335.402222 
	C1737.867065,1328.302612 1741.000977,1320.355713 1744.914795,1312.878540 
	C1749.330566,1304.442261 1754.048340,1296.163330 1758.416138,1287.703247 
	C1760.660156,1283.356689 1762.346924,1278.726440 1764.429077,1274.291748 
	C1770.213379,1261.971436 1776.125610,1249.710815 1781.849487,1237.362915 
	C1782.798950,1235.314819 1782.935547,1232.905762 1783.658569,1230.733643 
	C1785.196045,1226.114868 1787.036743,1221.592285 1788.451416,1216.938599 
	C1790.437378,1210.405029 1792.130371,1203.782837 1793.989014,1197.210083 
	C1794.603149,1195.038330 1794.711182,1192.252563 1796.137573,1190.865234 
	C1801.453613,1185.694946 1802.009644,1179.041504 1802.136353,1172.493164 
	C1802.248779,1166.678223 1803.046387,1161.256592 1805.930542,1156.226318 
	C1812.142090,1145.391968 1809.891846,1133.024780 1812.313110,1121.508911 
	C1813.528076,1115.730347 1813.808105,1109.383423 1816.532349,1104.398193 
	C1819.274780,1099.379517 1819.913940,1094.458862 1820.026611,1089.263550 
	C1820.662109,1059.943237 1821.391968,1030.620239 1821.521484,1001.295654 
	C1821.589600,985.870361 1820.766235,970.422668 1819.764771,955.022827 
	C1819.481445,950.665466 1817.155518,946.439758 1815.758057,942.156372 
	C1815.059692,940.016052 1813.953491,937.927063 1813.698853,935.737366 
	C1812.438843,924.900818 1811.418823,914.036499 1810.269531,903.186707 
	C1810.059814,901.206787 1810.201294,898.902039 1809.229980,897.337280 
	C1803.106201,887.471863 1802.082275,876.460999 1801.240967,865.301819 
	C1801.053589,862.816101 1799.799927,860.215637 1798.432007,858.050354 
	C1794.267456,851.458740 1793.278809,843.938721 1791.653809,836.593872 
	C1791.228027,834.669739 1791.679688,832.180603 1790.614624,830.828003 
	C1782.615112,820.669189 1782.776611,807.271973 1776.364746,796.312317 
	C1770.847900,786.882568 1768.272583,775.783020 1763.492432,765.857239 
	C1758.512207,755.515808 1752.360474,745.743896 1746.892090,735.630371 
	C1743.467773,729.297119 1739.551270,723.153381 1736.248535,716.900085 
	C1729.298340,703.740662 1720.675781,691.950012 1711.724487,680.259705 
	C1703.612183,669.665161 1695.659912,658.945129 1687.383057,648.481384 
	C1684.526245,644.869690 1680.901978,641.865723 1677.633423,638.579102 
	C1668.046021,628.939026 1658.823486,618.896790 1648.764160,609.777344 
	C1640.247559,602.056458 1630.802856,595.351868 1621.684204,588.307068 
	C1619.091675,586.304138 1615.747803,585.122620 1613.526245,582.815613 
	C1601.675903,570.508850 1585.690186,564.604919 1571.578613,555.924683 
	C1558.923950,548.140503 1544.794434,542.694885 1531.140015,536.611511 
	C1517.542725,530.553650 1513.111450,533.141663 1509.597168,547.933167 
	C1508.611328,552.082947 1507.406982,556.359192 1505.336060,560.032349 
	C1501.981079,565.982788 1500.615967,572.098267 1500.050659,578.877563 
	C1499.629150,583.933594 1496.720459,588.751221 1495.174316,593.753784 
	C1493.829590,598.104736 1492.342896,602.504639 1491.791138,606.990173 
	C1490.189209,620.014526 1489.239014,633.120300 1487.564087,646.133667 
	C1487.038696,650.215454 1484.201172,654.033936 1483.847046,658.097107 
	C1482.759521,670.579163 1481.787964,683.120972 1481.781860,695.640137 
	C1481.666138,930.296387 1481.712158,1164.952637 1481.640747,1399.609009 
	C1481.637817,1409.067505 1480.813232,1418.525757 1480.372681,1427.984131 
	C1480.264771,1430.301880 1481.090576,1433.390015 1479.908691,1434.815430 
	C1470.731934,1445.883301 1471.033813,1460.547852 1464.749390,1472.910400 
	C1448.648315,1504.584595 1426.519653,1531.055542 1399.555908,1553.552856 
	C1390.110352,1561.433838 1380.345459,1569.090698 1369.109985,1575.048340 
	C1360.894409,1579.404663 1353.049194,1584.975952 1344.535278,1589.071045 
	C1333.730835,1594.267944 1323.893799,1601.623901 1311.564575,1603.546875 
	C1308.142090,1604.080688 1305.062622,1606.527100 1301.678589,1607.653809 
	C1295.475220,1609.719116 1289.172852,1611.492310 1282.891724,1613.318115 
	C1276.946289,1615.046265 1270.991821,1616.748657 1265.009766,1618.344360 
	C1259.964966,1619.689941 1254.916748,1621.712280 1249.797363,1621.965210 
	C1231.431885,1622.872437 1213.037476,1623.437256 1194.650146,1623.563965 
	C1184.442749,1623.634155 1174.225952,1622.604858 1164.017822,1621.998535 
	C1162.712402,1621.921143 1161.220093,1621.729980 1160.175049,1621.042725 
	C1150.310669,1614.558594 1138.090210,1614.359131 1127.918823,1609.356201 
	C1107.796143,1599.458374 1088.537720,1587.840820 1076.048218,1568.190796 
	C1070.653198,1559.702515 1065.918579,1550.788452 1061.062378,1541.969482 
	C1060.152466,1540.316772 1059.881714,1538.218140 1059.690430,1536.288208 
	C1059.461426,1533.977539 1059.633667,1531.627197 1059.633667,1529.293945 
	C1059.633667,1256.639282 1059.648926,983.984680 1059.546631,711.330139 
	C1059.544067,704.511169 1060.568115,698.332336 1063.731201,692.210449 
	C1065.297485,689.178894 1065.137695,685.224548 1065.618652,681.668762 
	C1067.161377,670.262390 1067.914185,658.687195 1070.387939,647.489929 
	C1072.128052,639.613159 1074.628662,631.877441 1076.542480,623.975342 
	C1080.522461,607.542175 1085.434937,591.127258 1094.268188,576.341858 
	C1094.937622,575.221252 1095.342896,573.904053 1095.675781,572.627380 
	C1099.018311,559.811951 1106.069336,548.810303 1112.727905,537.614258 
	C1117.601929,529.418884 1122.164062,521.018555 1127.408203,513.067749 
	C1134.067261,502.971771 1140.826050,492.879364 1148.360718,483.438934 
	C1157.809814,471.600006 1167.443604,459.773346 1178.170898,449.123260 
	C1192.236450,435.158905 1206.768677,421.482178 1222.347900,409.273987 
	C1239.519897,395.817688 1257.932129,383.903412 1276.155396,371.848633 
	C1284.079346,366.606934 1293.024292,362.936768 1301.250610,358.117737 
	C1314.636597,350.276215 1328.896240,344.391785 1342.907349,337.876862 
	C1356.252441,331.671722 1369.921509,326.339294 1383.474243,320.770782 
	C1389.739624,318.196442 1396.815918,317.539429 1402.408081,313.126312 
	C1402.668701,312.920624 1402.964233,312.595184 1403.241211,312.597565 
	C1420.119995,312.741241 1433.397217,299.421509 1450.426514,299.965088 
	C1452.617920,300.035004 1455.173218,299.294464 1457.011353,298.091156 
	C1467.578857,291.173065 1479.542847,291.207916 1491.440063,290.610291 
	C1494.709106,290.446075 1498.465820,290.570648 1501.110962,289.034119 
	C1512.750610,282.273102 1525.539551,281.748535 1538.365479,281.283020 
	C1548.874023,280.901642 1559.424805,281.264160 1569.897461,280.491974 
	C1575.338745,280.090820 1580.648682,277.934998 1586.023682,276.594940 
	C1589.493408,275.729828 1592.962402,274.238312 1596.451050,274.179535 
	C1612.112549,273.915710 1627.785522,273.857330 1643.444214,274.195038 
	C1647.951660,274.292206 1652.421509,275.978485 1656.915405,276.903137 
	C1662.341675,278.019684 1667.734985,279.709747 1673.213989,280.072174 
	C1685.043457,280.854767 1697.094849,279.830780 1708.720703,281.666321 
	C1718.556396,283.219208 1729.327881,282.163605 1738.091919,288.810425 
	C1739.525635,289.897766 1741.711426,290.244873 1743.600464,290.439270 
	C1755.031372,291.615784 1765.614746,294.412140 1776.533203,298.972748 
	C1787.267334,303.456177 1798.891846,306.518280 1809.724976,311.459595 
	C1820.748535,316.487610 1832.194214,320.618591 1843.077515,325.917511 
	C1853.114746,330.804535 1862.860229,336.382843 1872.356079,342.266724 
	C1884.576294,349.838593 1896.403320,358.043335 1908.428345,365.931824 
	C1931.033813,380.760956 1951.194580,398.670227 1971.633301,416.211945 
	C1991.425659,433.198975 2009.471924,451.969940 2026.128540,472.002167 
	C2040.434570,489.207184 2054.617432,506.558685 2067.955322,524.513672 
	C2085.582275,548.242981 2102.052490,572.878906 2116.019287,598.920471 
	C2120.908936,608.037292 2127.770996,615.982300 2131.019287,626.301453 
	C2133.682129,634.761353 2140.037598,641.985168 2143.939453,650.147339 
	C2148.976074,660.683533 2153.089355,671.657288 2157.814453,682.348022 
	C2160.688721,688.851196 2164.006348,695.157166 2167.050781,701.586792 
	C2169.541260,706.846375 2173.167480,711.948303 2174.099365,717.488586 
	C2176.209717,730.036682 2183.043213,740.741150 2186.341553,752.678162 
	C2188.055176,758.880127 2188.218018,765.102051 2192.970459,770.487793 
	C2195.500000,773.354187 2195.935303,778.578003 2196.212158,782.809998 
	C2196.695557,790.200195 2198.730713,796.729614 2202.158936,803.387573 
	C2204.903564,808.718506 2205.447021,815.330566 2206.262451,821.467712 
	C2207.174561,828.327576 2208.187500,834.686218 2212.074219,840.963013 
	C2214.955566,845.616089 2214.860840,852.235840 2215.630615,858.040649 
	C2216.536865,864.870117 2215.007812,872.771484 2217.949219,878.434692 
	C2225.297852,892.584534 2224.843262,907.535339 2225.696045,922.502380 
	C2225.885010,925.822327 2226.327637,929.154297 2226.186768,932.460876 
	C2225.912109,938.893677 2228.315430,944.402039 2230.381348,950.361084 
	C2233.139648,958.317993 2234.040039,967.204346 2234.214355,975.722839 
	C2235.002197,1014.189209 2235.683350,1052.668579 2235.509766,1091.139160 
	C2235.426758,1109.502930 2233.383545,1127.859741 2232.135254,1146.213501 
	C2232.003906,1148.147095 2231.780029,1150.448730 2230.684326,1151.878906 
	C2225.404785,1158.770752 2225.884033,1166.746704 2225.652832,1174.695801 
	C2225.406982,1183.144775 2225.019531,1191.601807 2224.279541,1200.018921 
	C2223.939209,1203.887695 2223.613525,1208.366699 2221.535889,1211.355713 
	C2216.023438,1219.286133 2216.085449,1228.044800 2215.585938,1236.973755 
	C2215.296143,1242.155151 2215.006836,1247.877075 2212.691895,1252.294556 
	C2207.514893,1262.173584 2206.643799,1272.921509 2204.297852,1283.404907 
	C2203.682373,1286.155396 2202.430664,1288.833618 2201.081787,1291.335083 
	C2198.393066,1296.320923 2196.875488,1301.455444 2196.129883,1307.167358 
	C2195.435791,1312.484253 2192.677734,1317.518555 2190.949707,1322.717529 
	C2189.194824,1327.997192 2187.758545,1333.388062 2185.860840,1338.613403 
	C2184.427734,1342.559082 2182.489990,1346.322021 2180.771240,1350.163696 
	C2179.830322,1352.266724 2178.498779,1354.276855 2177.989746,1356.478149 
	C2174.484863,1371.642944 2167.168945,1385.168579 2160.434570,1399.009155 
	C2155.423340,1409.308105 2152.402832,1420.630249 2146.898193,1430.616089 
	C2142.980469,1437.723511 2139.296631,1444.951660 2135.387939,1452.058350 
	C2127.791260,1465.871460 2119.762695,1479.455322 2111.624023,1492.959717 
	C2103.999268,1505.611206 2096.489258,1518.378174 2088.042480,1530.475342 
	C2077.724609,1545.252197 2066.112061,1559.122803 2055.729492,1573.857422 
	C2041.244263,1594.413818 2025.021729,1613.392334 2007.294678,1631.197021 
	C1989.349365,1649.220825 1972.026123,1667.866943 1953.966187,1685.772339 
	C1942.963745,1696.680664 1931.436523,1707.130005 1919.500122,1717.006226 
	C1907.373047,1727.040405 1894.540283,1736.234741 1881.853271,1745.574951 
	C1872.297607,1752.609741 1862.633301,1759.518921 1852.752930,1766.085938 
	C1834.395996,1778.286865 1815.996216,1790.437744 1797.308228,1802.119873 
	C1788.955688,1807.341064 1779.838501,1811.331665 1771.115356,1815.969360 
	C1765.584351,1818.910156 1760.198853,1822.127075 1754.644165,1825.020508 
	C1743.920166,1830.606445 1733.296509,1836.432617 1722.305298,1841.444092 
	C1711.897461,1846.189575 1701.035522,1849.929810 1690.440186,1854.275513 
	C1678.676270,1859.100342 1667.010498,1864.164429 1655.251587,1869.002197 
	C1652.215454,1870.251343 1649.023071,1871.161499 1645.846313,1872.019409 
	C1639.924072,1873.618164 1634.124023,1874.921875 1628.510376,1878.080078 
	C1622.988647,1881.186646 1616.013428,1881.734009 1609.653931,1883.316284 
	C1607.093262,1883.953369 1603.858643,1883.557251 1601.985840,1885.000366 
	C1592.890015,1892.009033 1582.162842,1891.462646 1571.701660,1892.452148 
	C1569.452881,1892.664917 1566.862671,1893.043457 1565.129639,1894.306152 
	C1555.718384,1901.163330 1544.799438,1901.625977 1533.894165,1902.065796 
	C1527.250122,1902.333618 1521.192749,1902.828247 1515.096191,1906.850708 
	C1510.802124,1909.683838 1504.319336,1909.594971 1498.753296,1910.022217 
	C1487.593628,1910.878906 1476.339966,1910.704956 1465.225708,1911.894653 
	C1456.834106,1912.792969 1448.618774,1915.258179 1440.286621,1916.820312 
	C1434.808350,1917.847534 1429.285034,1918.948242 1423.740723,1919.243774 
	C1411.542358,1919.894165 1399.318115,1920.344727 1387.104248,1920.350098 
	C1367.097290,1920.359009 1347.089844,1919.959839 1327.083008,1919.708496 
	C1320.113647,1919.620972 1313.141479,1919.561401 1306.176880,1919.315308 
	C1288.912354,1918.704834 1271.651855,1917.989014 1254.389160,1917.325806 
	C1243.647705,1916.912964 1232.907715,1916.293945 1222.162720,1916.184326 
	C1212.517700,1916.085815 1203.130371,1915.216431 1194.265625,1911.022827 
	C1192.833740,1910.345459 1191.063477,1910.247559 1189.433105,1910.146118 
	C1173.873413,1909.175415 1158.298828,1908.413330 1142.754761,1907.243286 
	C1137.859375,1906.874756 1132.750610,1906.185669 1128.245605,1904.380493 
	C1115.082886,1899.105957 1101.312866,1898.084717 1087.439453,1897.340332 
	C1086.441772,1897.286743 1085.308472,1897.610840 1084.460083,1897.245117 
	C1069.899414,1890.967041 1053.946655,1890.012573 1039.037231,1885.375977 
	C1028.699707,1882.161133 1017.575195,1880.912598 1008.013428,1876.560547 
	C995.352478,1870.797607 981.359253,1870.147217 968.957520,1863.319946 
	C957.625366,1857.081665 944.421448,1854.347168 932.379883,1849.268433 
	C917.103271,1842.825195 902.038635,1835.838989 887.125061,1828.588135 
	C875.031921,1822.708374 863.026367,1816.546387 851.482239,1809.669678 
	C840.801086,1803.307129 830.749817,1795.879517 820.484436,1788.828613 
	C811.530334,1782.678223 802.625610,1776.453735 793.783325,1770.144043 
	C791.124573,1768.246948 788.655884,1766.053833 786.256897,1763.827515 
	C773.903748,1752.363892 761.277771,1741.168823 749.370422,1729.256836 
	C736.764893,1716.646606 724.136658,1703.930054 712.838440,1690.175537 
	C699.718018,1674.202515 687.034241,1657.743042 677.829651,1638.973877 
	C675.697449,1634.626099 672.475098,1630.825928 670.135437,1626.564453 
	C664.792664,1616.832886 659.497925,1607.064941 654.562317,1597.123901 
	C652.089417,1592.143066 651.349121,1586.122437 648.251465,1581.666138 
	C640.210999,1570.099243 640.360657,1555.178345 632.003601,1543.862793 
	C631.495544,1543.174683 631.740906,1541.930054 631.629150,1540.114990 
M1829.317017,336.501221 
	C1775.327026,309.205383 1717.561279,295.863556 1657.628906,292.521729 
	C1628.801025,290.914337 1599.748535,292.915771 1570.812866,293.783630 
	C1544.170166,294.582703 1517.882812,299.074951 1491.938721,304.631165 
	C1432.814453,317.293274 1375.920288,336.992126 1321.980225,364.305908 
	C1282.094360,384.502960 1245.053223,409.239685 1211.373901,438.994904 
	C1183.196899,463.889069 1158.929688,492.006897 1138.548340,523.404663 
	C1117.211670,556.274109 1101.286621,591.775391 1091.147095,629.684998 
	C1084.276001,655.374634 1077.819580,681.266846 1077.810181,708.085327 
	C1077.713989,983.023071 1077.773804,1257.960815 1077.625000,1532.898438 
	C1077.620972,1540.301025 1079.601196,1546.510376 1083.532104,1552.516479 
	C1100.411987,1578.307617 1124.593384,1593.890503 1153.773315,1601.931763 
	C1189.833130,1611.869141 1226.277954,1610.508057 1262.415161,1602.690918 
	C1303.538696,1593.794922 1341.378296,1577.001099 1375.657349,1552.378418 
	C1409.013672,1528.418579 1435.770020,1498.933594 1452.633545,1461.112061 
	C1462.216553,1439.619629 1467.834595,1417.229370 1467.831055,1393.533691 
	C1467.797119,1169.584351 1467.866333,945.635010 1467.744507,721.685852 
	C1467.727051,689.371948 1468.820312,657.208923 1473.815674,625.206970 
	C1478.913208,592.550293 1486.846924,560.706482 1499.379639,530.100708 
	C1501.725342,524.372375 1505.231445,519.119141 1509.677856,513.991699 
	C1513.122559,515.227173 1516.526367,516.594727 1520.018555,517.677063 
	C1545.892700,525.696106 1570.380005,536.844421 1593.653198,550.624329 
	C1660.577515,590.249634 1711.674072,645.516052 1751.491699,711.652832 
	C1797.216675,787.601379 1822.466553,870.467896 1833.792358,957.983826 
	C1840.211060,1007.582031 1838.800415,1057.047729 1831.396362,1106.346558 
	C1819.140503,1187.949829 1791.823975,1264.306641 1750.194336,1335.553955 
	C1700.298706,1420.948120 1634.825684,1492.626709 1557.536621,1553.791260 
	C1467.640747,1624.932617 1367.632446,1677.708130 1259.770020,1715.771973 
	C1229.060547,1726.609253 1197.666992,1735.507935 1165.380615,1745.326050 
	C1162.448730,1743.413818 1159.085205,1741.937256 1156.650513,1739.523560 
	C1125.290405,1708.431763 1098.049316,1674.035034 1075.565063,1636.030151 
	C1034.615234,1566.812744 1011.471741,1492.706299 1011.611450,1411.453735 
	C1012.069336,1145.186279 1011.786438,878.917480 1011.781006,612.649231 
	C1011.779663,548.998108 1011.792053,485.346924 1011.636536,421.696136 
	C1011.626282,417.508698 1011.444397,412.509857 1009.272339,409.281006 
	C1000.186401,395.774536 991.173218,382.053406 980.555115,369.775787 
	C953.354248,338.323700 920.125366,314.687531 882.095764,297.913940 
	C831.545166,275.617798 778.953552,265.621857 723.641418,271.693939 
	C691.528198,275.219299 661.227600,284.098938 632.615051,299.297363 
	C624.400879,303.660553 621.644592,308.685364 621.651062,317.943756 
	C621.898132,669.524353 621.897400,1021.105042 621.799377,1372.685791 
	C621.790649,1404.045532 624.709839,1435.087036 629.935120,1465.942017 
	C639.068176,1519.872437 656.372925,1570.969971 683.214233,1618.753418 
	C713.464294,1672.604980 753.346802,1718.081909 801.921448,1756.095337 
	C840.702393,1786.444092 883.114624,1810.561890 928.147339,1830.258789 
	C979.855225,1852.875488 1033.595947,1869.029175 1088.872803,1879.954346 
	C1113.928711,1884.906738 1139.236938,1888.705200 1164.539673,1892.249268 
	C1186.883911,1895.379028 1209.335083,1897.973022 1231.820557,1899.804443 
	C1255.341064,1901.720215 1278.955566,1903.401245 1302.534668,1903.479614 
	C1344.809937,1903.620239 1387.092651,1902.627686 1429.365356,1901.771240 
	C1438.942261,1901.577393 1448.491211,1900.004028 1459.801758,1898.710693 
	C1478.557983,1895.902466 1497.389893,1893.521729 1516.056885,1890.210571 
	C1588.588135,1877.344482 1658.072510,1854.702026 1724.346924,1822.716431 
	C1894.244629,1740.720093 2025.623779,1617.436157 2117.269287,1452.481323 
	C2178.743652,1341.832031 2212.960693,1222.883789 2219.541748,1096.485962 
	C2224.123535,1008.489197 2215.433105,921.485352 2194.370361,835.801208 
	C2167.593018,726.868652 2122.875488,626.132812 2056.947754,535.141602 
	C2010.202148,470.625153 1955.135498,414.424896 1888.298218,370.567230 
	C1869.716919,358.374512 1849.640625,348.460205 1829.317017,336.501221 
z"/>
<path fill="#4AA3CA" opacity="1.000000" stroke="none" 
	d="
M1166.587158,1745.295654 
	C1197.666992,1735.507935 1229.060547,1726.609253 1259.770020,1715.771973 
	C1367.632446,1677.708130 1467.640747,1624.932617 1557.536621,1553.791260 
	C1634.825684,1492.626709 1700.298706,1420.948120 1750.194336,1335.553955 
	C1791.823975,1264.306641 1819.140503,1187.949829 1831.396362,1106.346558 
	C1838.800415,1057.047729 1840.211060,1007.582031 1833.792358,957.983826 
	C1822.466553,870.467896 1797.216675,787.601379 1751.491699,711.652832 
	C1711.674072,645.516052 1660.577515,590.249634 1593.653198,550.624329 
	C1570.380005,536.844421 1545.892700,525.696106 1520.018555,517.677063 
	C1516.526367,516.594727 1513.122559,515.227173 1509.231934,513.216492 
	C1520.595703,488.450836 1534.911743,466.253632 1552.496460,445.909180 
	C1570.978516,424.526337 1592.334961,406.827362 1615.686401,391.320770 
	C1639.419189,375.560852 1665.204224,364.288330 1692.508057,356.086548 
	C1729.017456,345.119446 1766.087769,338.295410 1804.291626,338.129395 
	C1812.945190,338.091797 1821.597290,337.719086 1830.250122,337.500610 
	C1849.640625,348.460205 1869.716919,358.374512 1888.298218,370.567230 
	C1955.135498,414.424896 2010.202148,470.625153 2056.947754,535.141602 
	C2122.875488,626.132812 2167.593018,726.868652 2194.370361,835.801208 
	C2215.433105,921.485352 2224.123535,1008.489197 2219.541748,1096.485962 
	C2212.960693,1222.883789 2178.743652,1341.832031 2117.269287,1452.481323 
	C2025.623779,1617.436157 1894.244629,1740.720093 1724.346924,1822.716431 
	C1658.072510,1854.702026 1588.588135,1877.344482 1516.056885,1890.210571 
	C1497.389893,1893.521729 1478.557983,1895.902466 1458.152588,1898.537109 
	C1433.976929,1892.622437 1411.148438,1887.848633 1388.988403,1880.932983 
	C1346.584595,1867.699463 1306.377808,1849.269897 1268.414062,1826.091675 
	C1234.538330,1805.409058 1202.641113,1782.093384 1173.877075,1754.661011 
	C1171.045288,1751.960327 1168.998413,1748.437134 1166.587158,1745.295654 
z"/>
<path fill="#003F7E" opacity="1.000000" stroke="none" 
	d="
M1165.983887,1745.310791 
	C1168.998413,1748.437134 1171.045288,1751.960327 1173.877075,1754.661011 
	C1202.641113,1782.093384 1234.538330,1805.409058 1268.414062,1826.091675 
	C1306.377808,1849.269897 1346.584595,1867.699463 1388.988403,1880.932983 
	C1411.148438,1887.848633 1433.976929,1892.622437 1457.278320,1898.714600 
	C1448.491211,1900.004028 1438.942261,1901.577393 1429.365356,1901.771240 
	C1387.092651,1902.627686 1344.809937,1903.620239 1302.534668,1903.479614 
	C1278.955566,1903.401245 1255.341064,1901.720215 1231.820557,1899.804443 
	C1209.335083,1897.973022 1186.883911,1895.379028 1164.539673,1892.249268 
	C1139.236938,1888.705200 1113.928711,1884.906738 1088.872803,1879.954346 
	C1033.595947,1869.029175 979.855225,1852.875488 928.147339,1830.258789 
	C883.114624,1810.561890 840.702393,1786.444092 801.921448,1756.095337 
	C753.346802,1718.081909 713.464294,1672.604980 683.214233,1618.753418 
	C656.372925,1570.969971 639.068176,1519.872437 629.935120,1465.942017 
	C624.709839,1435.087036 621.790649,1404.045532 621.799377,1372.685791 
	C621.897400,1021.105042 621.898132,669.524353 621.651062,317.943756 
	C621.644592,308.685364 624.400879,303.660553 632.615051,299.297363 
	C661.227600,284.098938 691.528198,275.219299 723.641418,271.693939 
	C778.953552,265.621857 831.545166,275.617798 882.095764,297.913940 
	C920.125366,314.687531 953.354248,338.323700 980.555115,369.775787 
	C991.173218,382.053406 1000.186401,395.774536 1009.272339,409.281006 
	C1011.444397,412.509857 1011.626282,417.508698 1011.636536,421.696136 
	C1011.792053,485.346924 1011.779663,548.998108 1011.781006,612.649231 
	C1011.786438,878.917480 1012.069336,1145.186279 1011.611450,1411.453735 
	C1011.471741,1492.706299 1034.615234,1566.812744 1075.565063,1636.030151 
	C1098.049316,1674.035034 1125.290405,1708.431763 1156.650513,1739.523560 
	C1159.085205,1741.937256 1162.448730,1743.413818 1165.983887,1745.310791 
z"/>
<path fill="#003F7E" opacity="1.000000" stroke="none" 
	d="
M1829.783569,337.000916 
	C1821.597290,337.719086 1812.945190,338.091797 1804.291626,338.129395 
	C1766.087769,338.295410 1729.017456,345.119446 1692.508057,356.086548 
	C1665.204224,364.288330 1639.419189,375.560852 1615.686401,391.320770 
	C1592.334961,406.827362 1570.978516,424.526337 1552.496460,445.909180 
	C1534.911743,466.253632 1520.595703,488.450836 1508.494019,513.043945 
	C1505.231445,519.119141 1501.725342,524.372375 1499.379639,530.100708 
	C1486.846924,560.706482 1478.913208,592.550293 1473.815674,625.206970 
	C1468.820312,657.208923 1467.727051,689.371948 1467.744507,721.685852 
	C1467.866333,945.635010 1467.797119,1169.584351 1467.831055,1393.533691 
	C1467.834595,1417.229370 1462.216553,1439.619629 1452.633545,1461.112061 
	C1435.770020,1498.933594 1409.013672,1528.418579 1375.657349,1552.378418 
	C1341.378296,1577.001099 1303.538696,1593.794922 1262.415161,1602.690918 
	C1226.277954,1610.508057 1189.833130,1611.869141 1153.773315,1601.931763 
	C1124.593384,1593.890503 1100.411987,1578.307617 1083.532104,1552.516479 
	C1079.601196,1546.510376 1077.620972,1540.301025 1077.625000,1532.898438 
	C1077.773804,1257.960815 1077.713989,983.023071 1077.810181,708.085327 
	C1077.819580,681.266846 1084.276001,655.374634 1091.147095,629.684998 
	C1101.286621,591.775391 1117.211670,556.274109 1138.548340,523.404663 
	C1158.929688,492.006897 1183.196899,463.889069 1211.373901,438.994904 
	C1245.053223,409.239685 1282.094360,384.502960 1321.980225,364.305908 
	C1375.920288,336.992126 1432.814453,317.293274 1491.938721,304.631165 
	C1517.882812,299.074951 1544.170166,294.582703 1570.812866,293.783630 
	C1599.748535,292.915771 1628.801025,290.914337 1657.628906,292.521729 
	C1717.561279,295.863556 1775.327026,309.205383 1829.783569,337.000916 
z"/>
</svg>